PathFileType	4	(X/Y/Z) flx_2kg_2.trc																										
DataRate	CameraRate	NumFrames	NumMarkers	Units	OrigDataRate	OrigDataStartFrame	OrigNumFrames																					
100	100	40	9	mm	100	206	821																					
Frame#	Time	gu			centelbow			EpL			centpxt8			centijc7			ij			ts			aa			ai		
		X1	Y1	Z1	X2	Y2	Z2	X3	Y3	Z3	X4	Y4	Z4	X5	Y5	Z5	X6	Y6	Z6	X7	Y7	Z7	X8	Y8	Z8	X9	Y9	Z9  
205	2.05	-61.616	16.148	151.208	130.301	-105.038	248.503	130.984	-79.762	268.504	-46.816	-153.158	-8.669	-46.816	31.938	-8.669	0	0	0	-148.335	9.926	58.912	-94.96	39.82	161.295	-146.927	-97.483	95.611
206	2.06	-61.691	16.735	151.172	131.596	-101.608	249.25	132.034	-76.159	269.039	-46.816	-153.158	-8.669	-46.816	31.938	-8.669	0	0	0	-148.598	9.366	59.073	-94.931	40.065	161.065	-146.782	-97.797	96.468
207	2.07	-61.477	17.598	151.042	133.37	-97.829	249.51	133.597	-72.208	269.08	-46.816	-153.158	-8.669	-46.816	31.938	-8.669	0	0	0	-148.986	9.087	59.026	-95.012	40.58	160.613	-146.633	-97.846	97.046
208	2.08	-61.055	18.667	150.359	135.514	-93.816	248.81	135.566	-68.026	268.156	-46.816	-153.158	-8.669	-46.816	31.938	-8.669	0	0	0	-149.349	9.098	58.718	-95.051	41.396	159.879	-146.337	-97.611	97.316
209	2.09	-60.8	19.665	149.382	137.4	-89.928	247.822	137.285	-63.968	266.939	-46.816	-153.158	-8.669	-46.816	31.938	-8.669	0	0	0	-149.445	9.166	58.53	-94.842	42.275	159.262	-145.771	-97.311	97.706
210	2.1	-61.04	20.553	148.804	138.473	-86.19	247.723	138.153	-60.056	266.6	-46.816	-153.158	-8.669	-46.816	31.938	-8.669	0	0	0	-149.338	9.018	58.853	-94.467	42.913	159.178	-145.134	-97.212	98.64
211	2.11	-61.498	21.424	148.906	139.032	-82.426	248.842	138.462	-56.113	267.462	-46.816	-153.158	-8.669	-46.816	31.938	-8.669	0	0	0	-149.315	8.548	59.588	-94.196	43.188	159.522	-144.731	-97.425	100.014
212	2.12	-61.503	22.09	149.239	139.971	-78.867	250.235	139.148	-52.377	268.593	-46.816	-153.158	-8.669	-46.816	31.938	-8.669	0	0	0	-149.456	7.882	60.263	-94.085	43.245	159.804	-144.522	-97.833	101.32
213	2.13	-61.026	22.358	149.216	141.53	-75.806	250.8	140.494	-49.154	268.912	-46.816	-153.158	-8.669	-46.816	31.938	-8.669	0	0	0	-149.588	7.253	60.581	-93.973	43.342	159.724	-144.216	-98.21	102.227
214	2.14	-60.901	22.543	148.725	142.928	-72.854	250.399	141.704	-46.062	268.291	-46.816	-153.158	-8.669	-46.816	31.938	-8.669	0	0	0	-149.669	6.815	60.556	-93.827	43.652	159.296	-143.747	-98.398	102.754
215	2.15	-61.574	23.203	147.949	143.629	-69.244	249.583	142.192	-42.325	267.267	-46.816	-153.158	-8.669	-46.816	31.938	-8.669	0	0	0	-149.797	6.684	60.272	-93.736	44.303	158.592	-143.227	-98.274	103.007
216	2.16	-62.329	24.431	147.048	144.219	-64.8	248.832	142.524	-37.752	266.295	-46.816	-153.158	-8.669	-46.816	31.938	-8.669	0	0	0	-149.917	6.944	59.93	-93.644	45.382	157.811	-142.613	-97.748	103.194
217	2.17	-62.285	25.826	146.233	145.451	-60.081	248.458	143.476	-32.892	265.672	-46.816	-153.158	-8.669	-46.816	31.938	-8.669	0	0	0	-149.925	7.386	59.844	-93.45	46.646	157.281	-141.872	-97.034	103.63
218	2.18	-61.624	27.133	145.702	147.074	-55.589	248.594	144.828	-28.255	265.541	-46.816	-153.158	-8.669	-46.816	31.938	-8.669	0	0	0	-149.9	7.588	60.003	-93.216	47.636	156.998	-141.192	-96.554	104.323
219	2.19	-61.29	28.344	145.334	148.18	-51.512	248.918	145.691	-24.042	265.609	-46.816	-153.158	-8.669	-46.816	31.938	-8.669	0	0	0	-149.987	7.465	60.071	-93.084	48.252	156.629	-140.757	-96.396	104.942
220	2.2	-61.798	29.278	144.906	148.327	-48.119	249.028	145.634	-20.534	265.497	-46.816	-153.158	-8.669	-46.816	31.938	-8.669	0	0	0	-150.156	7.205	59.965	-93.078	48.678	156.126	-140.51	-96.381	105.379
221	2.21	-62.774	29.727	144.434	147.959	-45.46	248.945	145.079	-17.784	265.227	-46.816	-153.158	-8.669	-46.816	31.938	-8.669	0	0	0	-150.222	6.869	59.898	-93.038	48.969	155.723	-140.222	-96.462	105.816
222	2.22	-63.554	29.978	143.885	147.879	-42.78	248.703	144.783	-15.022	264.808	-46.816	-153.158	-8.669	-46.816	31.938	-8.669	0	0	0	-150.164	6.56	59.829	-92.885	49.252	155.335	-139.791	-96.531	106.199
223	2.23	-63.831	30.539	143.115	148.48	-39.189	248.218	145.103	-11.35	264.125	-46.816	-153.158	-8.669	-46.816	31.938	-8.669	0	0	0	-150.193	6.505	59.506	-92.777	49.786	154.664	-139.378	-96.351	106.296
224	2.24	-63.811	31.458	142.343	149.384	-34.79	247.907	145.668	-6.869	263.593	-46.816	-153.158	-8.669	-46.816	31.938	-8.669	0	0	0	-150.382	6.756	58.967	-92.801	50.616	153.759	-139.107	-95.867	106.16
225	2.25	-63.924	32.369	141.979	149.884	-30.481	248.377	145.806	-2.486	263.84	-46.816	-153.158	-8.669	-46.816	31.938	-8.669	0	0	0	-150.607	7.241	58.458	-92.894	51.64	152.918	-138.938	-95.157	106.04
226	2.26	-64.321	33.035	141.981	149.787	-26.907	249.448	145.372	1.144	264.714	-46.816	-153.158	-8.669	-46.816	31.938	-8.669	0	0	0	-150.887	7.82	58.085	-93.108	52.686	152.284	-138.924	-94.378	106.022
227	2.27	-64.838	33.36	142.042	149.441	-24.149	250.491	144.732	3.94	265.599	-46.816	-153.158	-8.669	-46.816	31.938	-8.669	0	0	0	-151.312	8.062	57.904	-93.507	53.299	151.91	-139.174	-93.969	106.152
228	2.28	-65.42	33.208	141.995	149.059	-21.998	251.244	144.07	6.115	266.217	-46.816	-153.158	-8.669	-46.816	31.938	-8.669	0	0	0	-151.768	7.604	57.977	-93.939	53.147	151.82	-139.562	-94.278	106.523
229	2.29	-66.099	32.882	141.539	148.653	-19.669	251.557	143.34	8.455	266.399	-46.816	-153.158	-8.669	-46.816	31.938	-8.669	0	0	0	-152.099	6.752	58.148	-94.247	52.636	151.81	-139.84	-94.958	107.039
230	2.3	-66.731	33.131	140.439	148.314	-16.135	251.403	142.586	11.984	266.1	-46.816	-153.158	-8.669	-46.816	31.938	-8.669	0	0	0	-152.292	6.107	58.193	-94.447	52.446	151.635	-139.908	-95.383	107.509
231	2.31	-67.13	34.111	139.15	148.081	-11.484	251.353	141.878	16.62	265.883	-46.816	-153.158	-8.669	-46.816	31.938	-8.669	0	0	0	-152.331	5.851	58.099	-94.54	52.747	151.297	-139.752	-95.375	107.904
232	2.32	-67.343	35.181	138.39	147.843	-6.899	252.006	141.175	21.19	266.358	-46.816	-153.158	-8.669	-46.816	31.938	-8.669	0	0	0	-152.303	5.78	57.957	-94.596	53.26	150.911	-139.517	-95.169	108.271
233	2.33	-67.579	35.763	138.284	147.478	-3.273	253.223	140.412	24.807	267.402	-46.816	-153.158	-8.669	-46.816	31.938	-8.669	0	0	0	-152.476	5.639	57.827	-94.854	53.662	150.554	-139.528	-95.045	108.629
234	2.34	-67.988	35.949	138.33	146.982	-0.364	254.319	139.587	27.722	268.317	-46.816	-153.158	-8.669	-46.816	31.938	-8.669	0	0	0	-152.906	5.366	57.668	-95.347	53.878	150.179	-139.844	-95.07	108.928
235	2.35	-68.604	36.35	137.94	146.416	2.902	254.696	138.721	31.015	268.475	-46.816	-153.158	-8.669	-46.816	31.938	-8.669	0	0	0	-153.36	5.213	57.304	-95.855	54.217	149.588	-140.153	-94.975	109.011
236	2.36	-69.353	37.28	137.075	145.8	7.146	254.487	137.791	35.305	267.991	-46.816	-153.158	-8.669	-46.816	31.938	-8.669	0	0	0	-153.679	5.372	56.695	-96.25	54.95	148.721	-140.221	-94.537	108.876
237	2.37	-70.082	38.308	136.356	145.08	11.703	254.601	136.743	39.92	267.781	-46.816	-153.158	-8.669	-46.816	31.938	-8.669	0	0	0	-153.878	5.559	56.178	-96.573	55.799	147.922	-140.122	-94.026	108.896
238	2.38	-70.636	38.945	136.267	144.299	15.596	255.607	135.657	43.88	268.442	-46.816	-153.158	-8.669	-46.816	31.938	-8.669	0	0	0	-154.025	5.456	56.108	-96.87	56.383	147.566	-140.038	-93.779	109.422
239	2.39	-70.912	39.312	136.557	143.72	18.804	256.961	134.826	47.163	269.454	-46.816	-153.158	-8.669	-46.816	31.938	-8.669	0	0	0	-154.154	5.192	56.408	-97.117	56.784	147.567	-139.999	-93.689	110.332
240	2.4	-70.925	39.833	136.616	143.584	22.067	257.671	134.475	50.499	269.839	-46.816	-153.158	-8.669	-46.816	31.938	-8.669	0	0	0	-154.299	4.96	56.756	-97.304	57.196	147.573	-139.947	-93.571	111.266
241	2.41	-70.878	40.718	136.006	143.784	26.032	257.202	134.449	54.524	269.053	-46.816	-153.158	-8.669	-46.816	31.938	-8.669	0	0	0	-154.507	4.636	57.003	-97.496	57.536	147.426	-139.877	-93.534	112.086
242	2.42	-71.127	41.808	134.847	143.806	30.724	255.946	134.205	59.267	267.458	-46.816	-153.158	-8.669	-46.816	31.938	-8.669	0	0	0	-154.719	4.128	57.109	-97.693	57.774	147.081	-139.724	-93.639	112.808
243	2.43	-71.848	42.701	133.838	143.217	35.487	254.996	133.324	64.083	266.121	-46.816	-153.158	-8.669	-46.816	31.938	-8.669	0	0	0	-154.8	3.747	56.958	-97.793	58.275	146.41	-139.34	-93.543	113.36
244	2.44	-72.636	43.205	133.443	142.32	39.672	254.958	132.148	68.329	265.67	-46.816	-153.158	-8.669	-46.816	31.938	-8.669	0	0	0	-154.663	3.818	56.604	-97.712	59.325	145.488	-138.694	-92.934	113.785
